PathFileType	4	(X/Y/Z)	OpenSim_Sub04_EMGStiffKnee_Magnet.trc
DataRate	CameraRate	NumFrames	NumMarkers	Units	OrigDataRate	OrigDataStartFrame	OrigNumFrames
100	100	20	8	m	100	6208	8277
Frame#	Time	torso_imu_offset_imu	pelvis_imu_offset_imu	tibia_r_imu_offset_imu	femur_r_imu_offset_imu	tibia_l_imu_offset_imu	femur_l_imu_offset_imu	toes_r_imu_offset_imu	toes_l_imu_offset_imu
				X1	Y1	Z1	X2	Y2	Z2	X3	Y3	Z3	X4	Y4	Z4	X5	Y5	Z5	X6	Y6	Z6	X7	Y7	Z7	X8		Y8	Z8	

6208	62.07000000	0.93333534	0.19932194	-0.16066440	-0.59837915	0.14978065	-0.71591707	-0.15440778	-0.80350089	-0.20127217	-0.77215679	-0.34283714	0.04096392	-0.64720974	0.44266364	0.29679677	-0.65979011	0.19714675	0.47627431	-0.84537620	-0.39711186	-0.18592929	-0.70287045	-0.32119363	-0.37259259
6209	62.08000000	0.93262901	0.19541554	-0.15862430	-0.59701084	0.15910402	-0.71713648	-0.12962879	-0.81339388	-0.19389222	-0.77850780	-0.33296438	0.03940192	-0.63913895	0.44224698	0.30266085	-0.65560029	0.20339349	0.48281685	-0.84448923	-0.40722740	-0.14183486	-0.70887962	-0.32428442	-0.37262508
6210	62.09000000	0.93139323	0.19434066	-0.15698742	-0.60100850	0.15826215	-0.71525126	-0.11082854	-0.82277583	-0.18554533	-0.78473874	-0.31965934	0.04642402	-0.64065622	0.44295159	0.30695346	-0.65094434	0.21123479	0.48469941	-0.84600201	-0.42103141	-0.10000329	-0.71133618	-0.32346895	-0.36700860
6211	62.10000000	0.93878181	0.19598606	-0.15882892	-0.60536868	0.15334388	-0.71556147	-0.08937928	-0.82387642	-0.17797097	-0.79399198	-0.30218440	0.04092251	-0.63356168	0.44765968	0.31080469	-0.64934598	0.21179874	0.48463551	-0.84422573	-0.43672233	-0.05352099	-0.71680228	-0.32449453	-0.36347216
6212	62.11000000	0.93988216	0.19624648	-0.15883629	-0.60169253	0.15667647	-0.71498285	-0.06064647	-0.82385448	-0.16812042	-0.80296335	-0.28727506	0.03219631	-0.62883770	0.45394031	0.31701402	-0.64742375	0.21650113	0.49759730	-0.83483308	-0.45265376	-0.00500649	-0.71869545	-0.32807619	-0.36275690
6213	62.12000000	0.94085017	0.19355939	-0.15666016	-0.60138744	0.15299389	-0.71002977	-0.03549573	-0.83099189	-0.14585272	-0.81034513	-0.26419812	0.02887026	-0.62873576	0.45624382	0.31905646	-0.64401401	0.22254898	0.48792830	-0.81628845	-0.46524837	0.03536947	-0.71844518	-0.33198121	-0.35453513
6214	62.13000000	0.93596903	0.19907357	-0.15183996	-0.60588760	0.15322324	-0.71067609	-0.01444073	-0.83920931	-0.13243957	-0.81966999	-0.24235648	0.02444177	-0.61848539	0.46162378	0.32475887	-0.64175434	0.22603619	0.48385589	-0.79918399	-0.48524138	0.07126149	-0.72481595	-0.33270770	-0.34925732
6215	62.14000000	0.92901309	0.20396296	-0.15681889	-0.60564630	0.15504278	-0.71246414	0.00304915	-0.83448011	-0.12639174	-0.82128364	-0.22294772	0.01988003	-0.60853319	0.47076130	0.33112618	-0.64178325	0.23320003	0.49043564	-0.78415597	-0.50073724	0.10896531	-0.73141200	-0.33374134	-0.34517496
6216	62.15000000	0.93040788	0.20278698	-0.16125449	-0.60302645	0.15235677	-0.71135048	0.01853987	-0.83440551	-0.11510708	-0.82292957	-0.20422888	0.01792723	-0.60820785	0.47332641	0.33684979	-0.63700016	0.23911171	0.48457754	-0.77226161	-0.50952116	0.12663441	-0.73024178	-0.33577655	-0.34627708
6217	62.16000000	0.93065554	0.20391374	-0.15699679	-0.60111429	0.14934988	-0.71419781	0.03216612	-0.83326884	-0.10733230	-0.83212970	-0.18648439	0.01183528	-0.60505829	0.47452832	0.33920379	-0.63196363	0.24095676	0.48220431	-0.76458644	-0.51339286	0.12640944	-0.72966937	-0.33981473	-0.33615596
6218	62.17000000	0.93415961	0.20741793	-0.15836024	-0.59725228	0.14599572	-0.71652439	0.04292103	-0.83224476	-0.10369545	-0.83900188	-0.17095732	0.00727214	-0.59796450	0.48143632	0.33673069	-0.63186820	0.24881412	0.48473708	-0.75609424	-0.51377864	0.13289558	-0.73300760	-0.34128030	-0.32371745
6219	62.18000000	0.93100291	0.21104365	-0.15707212	-0.59535533	0.14435149	-0.71728101	0.04087163	-0.83732561	-0.11393139	-0.84210592	-0.15751758	0.00024427	-0.59790171	0.48418717	0.34411770	-0.62385930	0.25399013	0.49675523	-0.75510359	-0.51446971	0.13787661	-0.73231335	-0.33867519	-0.32603510
6220	62.19000000	0.92797839	0.21821422	-0.15597827	-0.59359252	0.14158834	-0.71879644	0.02677932	-0.83426292	-0.12072236	-0.84527782	-0.13864037	-0.01179049	-0.59041379	0.48660101	0.34728527	-0.61884895	0.25838674	0.49626175	-0.76145515	-0.50323328	0.13478236	-0.73321662	-0.34271743	-0.31922441
6221	62.20000000	0.93014291	0.22225223	-0.15675893	-0.59555336	0.14235392	-0.71829459	0.01186285	-0.82974296	-0.12308767	-0.84459242	-0.12340268	-0.01387345	-0.58914865	0.49479466	0.34593610	-0.62181350	0.26199129	0.49448713	-0.76154495	-0.49456928	0.12218871	-0.73646205	-0.34837745	-0.31033503
6222	62.21000000	0.92832408	0.22477822	-0.15494338	-0.59520944	0.14153597	-0.71936646	-0.00269683	-0.82702011	-0.12914372	-0.84745686	-0.10993801	-0.01968907	-0.58866724	0.49750736	0.34718709	-0.61292053	0.26295249	0.50430684	-0.77085405	-0.48528734	0.10735743	-0.74040054	-0.35385978	-0.30622536
6223	62.22000000	0.92662789	0.23047362	-0.15614580	-0.59489890	0.14483570	-0.72290658	-0.02530541	-0.83053060	-0.12919781	-0.85179077	-0.09086826	-0.03233752	-0.58514450	0.49878541	0.34960493	-0.60799013	0.26978665	0.51141924	-0.78470583	-0.46976835	0.09065320	-0.73906903	-0.35279230	-0.29642892
6224	62.23000000	0.92842710	0.23617178	-0.15376392	-0.59654595	0.15122397	-0.72116073	-0.05068202	-0.83053210	-0.12948641	-0.85273881	-0.07642283	-0.04007699	-0.57997150	0.50524400	0.35797055	-0.60529383	0.27334830	0.51163093	-0.78819786	-0.46403663	0.06335554	-0.72687497	-0.36106978	-0.28637807
6225	62.24000000	0.92704646	0.23932987	-0.15061241	-0.59057267	0.15255292	-0.71956612	-0.07653087	-0.82011901	-0.12901007	-0.85395200	-0.05970692	-0.04874742	-0.57150274	0.50999385	0.35800861	-0.60144956	0.27890914	0.51136140	-0.80090724	-0.45115300	0.03254328	-0.72547048	-0.36668433	-0.28358366
6226	62.25000000	0.92442292	0.23979636	-0.14683106	-0.58977737	0.15384823	-0.72198429	-0.11374499	-0.81459125	-0.12611245	-0.85718532	-0.04808998	-0.05012010	-0.57264681	0.51062822	0.35547228	-0.60075641	0.27864715	0.51250248	-0.80941244	-0.43563501	-0.00587679	-0.72784013	-0.36121702	-0.28320829
6227	62.26000000	0.92461059	0.23477232	-0.14588409	-0.59212723	0.15417318	-0.72754846	-0.14442318	-0.81656713	-0.12688612	-0.85668073	-0.03580464	-0.05353682	-0.56777867	0.51817101	0.35953816	-0.59354715	0.28237325	0.50762794	-0.81440962	-0.42523183	-0.04025548	-0.72458714	-0.36758547	-0.27233568
